<svg width="280" height="280" viewBox="0 0 280 280" fill="none" xmlns="http://www.w3.org/2000/svg">
<g clip-path="url(#clip0_1902_2)">
<mask id="mask0_1902_2" style="mask-type:luminance" maskUnits="userSpaceOnUse" x="39" y="73" width="203" height="134">
<path d="M39.0615 73.6296H241.284V206.831H39.0615V73.6296Z" fill="white"/>
</mask>
<g mask="url(#mask0_1902_2)">
<path d="M124.692 74.429C129.788 73.0976 136.385 74.9691 139.257 75.4809C143.347 76.6827 153.279 76.0021 154.756 76.2384C154.162 76.233 146.558 76.1385 145.899 76.3951C147.072 76.815 147.721 76.6422 148.869 76.6732C159.551 76.576 151.814 76.283 174.623 81.0658C175.601 81.2764 176.612 81.3507 177.566 81.6667L184.587 86.6425C187.585 87.6364 195.988 89.9549 196.132 89.9738C196.387 90.4059 196.096 90.0669 199.281 93.251C199.717 93.6979 199.879 94.4527 200.537 94.6458C206.979 97.3856 202.607 94.7903 210.505 100.112C210.577 100.16 213.782 102.274 213.869 102.293C213.892 102.372 218.199 107.684 219.295 108.963C219.321 109.043 221.642 114.795 222.092 115.378C226.433 118.48 225.928 116.406 230.622 122.84C232.171 129.442 231.312 128.105 233.815 132.174C234.127 132.595 234.23 133.122 234.366 133.618C236.6 140.582 236.006 138.642 236.101 140.192C240.925 147.239 240.796 162.105 241.18 163.092C241.311 164.504 239.759 174.838 239.739 174.916C237.735 181.742 237.449 181.117 238.61 186.301C238.735 186.676 238.001 189.72 237.835 190.755C236.377 194.286 234.026 196.859 228.911 203.812L224.181 205.965L217.991 206.782C217.606 206.545 215.548 205.698 214.73 205.154C213.048 204.826 211.358 204.545 209.67 204.242C206.315 203.94 202.826 201.046 200.983 200.834C197.909 200.371 194.831 200.058 191.755 199.647C191.513 199.536 186.702 197.046 186.69 197.04C185.648 195.469 184.59 193.911 183.564 192.333C182.441 192.782 180.019 192.106 179.218 192.11C178.628 191.684 178.054 191.24 177.456 190.827C168.462 194.824 163.595 193.76 161.34 194.169C156.062 196.79 158.96 196.302 150.322 196.234C149.93 196.107 149.52 196.143 149.117 196.108C148.739 195.968 147.072 195.914 146.668 195.914C146.205 196.151 143.771 197.927 143.717 197.98C143.539 198.046 140.467 198.691 140.302 198.72C139.456 198.598 135.54 198.81 132.064 197.164C131.843 197.041 131.643 197.276 131.448 197.354C130.665 197.903 129.696 198.142 128.956 198.753C128.942 198.756 125.187 200.074 125.102 200.116C123.671 200.141 122.238 200.108 120.807 200.131C119.313 200.938 112.243 202.668 105.945 201.322C96.1419 198.782 99.8647 199.254 94.4216 197.086C94.1516 196.884 90.6651 193.71 90.5773 193.606C88.7503 191.525 90.8771 195.091 86.5588 187.92C85.9255 187.92 85.2922 187.92 84.6589 187.92C84.6589 187.918 82.5416 185.661 82.5416 185.661C82.2338 184.753 82.0515 183.811 81.7422 182.905C81.7098 181.433 81.7382 179.961 81.7287 178.488C81.3709 178.48 78.5893 178.296 78.299 178.145C59.1043 169.248 57.6014 173.054 48.2154 168.502C47.0758 167.868 46.4843 168.019 45.8038 167.168C43.2193 163.413 43.8971 166.972 42.4483 160.727C42.4091 156.363 42.5063 156.336 42.3726 156.151C40.6996 153.499 40.782 153.001 39.9299 151.808C39.726 151.055 38.5675 146.078 39.3101 144.064C39.352 142.363 39.5086 142.52 43.6284 134.508C43.8013 133.978 43.4637 133.479 43.3516 132.974C42.5266 128.555 42.7966 128.836 43.7054 125.064L46.5329 120.553C46.9002 120.325 50.3948 117.015 50.4745 116.952C50.8998 116.78 51.336 116.632 51.7667 116.47C51.7951 113.824 51.5264 114.647 52.5756 110.295C54.4876 108.253 53.2669 108.252 62.7691 101.839C63.1579 101.215 64.2963 100.499 64.8931 99.8553C64.9728 99.8067 69.6205 95.6721 70.7062 95.3102C72.0754 95.1036 77.0567 93.5183 77.8534 93.3927C78.303 93.363 78.7662 93.4481 79.2037 93.2996C79.8991 93.2996 80.5634 93.0484 81.2575 93.0484C82.0218 92.0586 82.9751 91.2457 84.2268 89.6645C90.6867 86.0741 86.0254 87.234 93.2064 86.0011C93.8478 85.8459 94.5351 85.7459 95.1819 85.9336L97.2397 86.0876C97.9284 86.305 98.6481 86.1011 99.3476 86.0646C99.7594 85.2855 101.607 83.9892 102.409 83.2155C109.644 79.652 108.233 80.2353 117.112 80.3042C117.423 80.4365 117.735 80.5702 118.063 80.662C118.322 80.0625 121.719 75.2473 122.088 75.1555C122.952 74.9043 123.846 74.7531 124.692 74.429ZM127.327 75.512C126.739 75.6456 126.148 75.7793 125.568 75.9468C125.207 75.9238 124.856 76.0251 124.539 76.1858C123.726 76.3464 120.58 80.9159 120.51 81.3318C120.426 81.2049 120.117 81.1765 120.084 81.3493C120.156 81.4614 120.366 81.5654 120.481 81.4655C121.039 81.7126 121.63 81.8733 122.187 82.1231C122.549 82.2608 122.958 82.4957 123.34 82.2905C123.34 82.2905 128.402 80.446 129.476 79.9909C129.555 79.9531 134.95 78.9269 141.344 80.2583C142.576 80.3407 146.396 80.1908 148.009 80.3515C147.78 80.4446 147.548 80.5189 147.319 80.5999C146.923 80.5972 146.535 80.685 146.155 80.7849C138.98 82.7739 138.897 81.9232 135.709 81.853C135.04 81.5046 134.267 81.7976 133.558 81.8179C129.404 81.7693 128.714 81.988 123.453 84.7157C123.451 84.7143 116.849 82.304 116.727 82.2756C116.208 82.0299 109.525 82.088 109.214 82.2865C108.316 82.5147 107.529 83.0143 106.697 83.4018C104.954 84.2052 105.313 83.4086 103.673 85.1505L101.122 87.5972C101.122 87.5972 93.8815 87.9658 92.2139 88.1238C87.1529 91.2538 88.6099 90.1182 85.5866 92.8081C84.9506 93.5413 83.9932 93.9747 83.5449 94.8673C81.3844 99.091 82.065 97.9068 80.8429 98.3619C80.5283 98.3376 80.1921 98.3065 79.9099 98.4753C79.8302 98.478 76.3586 98.9466 76.2357 98.9938C70.3888 102.952 66.6161 105.176 64.1815 110.667C64.4178 110.801 64.6554 110.931 64.8931 111.063C59.2366 119.826 53.2291 119.05 52.4095 125.302C52.211 125.639 52.2002 126.043 52.4135 126.375C52.5243 126.897 52.6687 127.412 52.8497 127.915L58.1848 128.606C58.3927 127.202 58.5021 127.502 58.5507 126.779C58.6884 126.381 58.737 125.934 59.0057 125.592C59.4135 125.114 61.489 121.663 61.8643 121.236C61.8887 121.208 65.3995 118.4 65.5075 118.337C65.972 118.133 66.4892 118.089 66.9739 117.937C67.2332 117.94 67.4938 117.937 67.753 117.935C68.0393 116.907 67.8273 114.505 68.5403 113.026C69.156 112.451 69.815 111.228 71.2936 109.363C73.1597 107.905 75.5349 105.521 76.7785 104.754C76.8595 104.716 83.2613 101.685 83.9797 101.443C78.9066 105.609 71.7351 108.569 70.5347 114.986L70.5414 114.895C70.4537 115.559 70.509 116.235 70.3753 116.895L70.482 116.899C70.956 117.146 70.7696 116.962 75.3647 117.675L75.277 117.673C75.863 117.732 76.4544 117.782 77.0459 117.782C78.2611 116.264 79.1051 115.546 79.2185 111.014C79.5061 112.289 79.4548 112.664 79.7195 113.399C79.8194 115.488 80.3528 112.704 79.6398 118.761C85.3273 122.757 77.5212 119.487 91.2754 119.598C91.2754 119.598 93.1753 119.932 97.3613 120.41C99.3746 116.305 98.8088 116.39 99.4583 114.869C99.4731 114.945 99.461 118.831 99.461 118.907C99.4515 120.48 101.771 124.81 102.02 125.785C102.108 126.467 102.11 127.172 102.357 127.823C102.746 134.017 106.485 138.204 106.843 138.751C100.231 135.04 102.055 124.922 97.1371 123.032C94.1232 122.011 97.5354 122.135 85.9485 122.156C85.0599 122.131 84.4118 122.939 82.3971 124.128C81.8422 124.424 79.548 130.522 79.5358 130.694C78.8094 136.481 78.7067 135.273 79.1375 136.254C79.4859 136.889 79.5952 137.653 80.0652 138.222C79.8802 138.4 80.2069 138.731 80.3879 138.548C81.8233 140.034 88.5464 141.728 91.8331 145.774C86.9828 144.561 80.3528 141.433 80.261 141.344C76.9784 138.249 78.4367 140.392 76.9702 137.779C76.896 137.328 76.1358 135.331 75.8887 134.857C75.8792 134.716 75.8697 134.576 75.863 134.437C73.6296 134.399 70.5968 134.422 70.5968 134.422C71.114 134.14 74.7409 132.824 75.7685 132.577L77.8331 126.144C78.0086 125.91 78.0816 125.625 78.0964 125.336C78.1315 125.257 79.2401 123.27 79.5196 122.894C78.2098 121.366 78.1383 120.954 77.7035 120.836C73.5459 119.6 73.315 118.729 69.6286 119.655C69.1628 119.645 67.537 119.84 66.9537 120.115C65.0133 121.9 62.3491 124.133 62.2087 124.577C61.543 126.689 60.0023 130.262 59.5364 132.074C59.2691 132.519 59.3352 137.661 59.5229 138.039C59.7498 139.344 60.1967 140.598 60.5302 141.878C60.6504 142.499 61.2554 142.796 61.7307 143.117C62.4963 143.592 63.1674 144.202 63.9182 144.699C66.2231 144.977 67.1832 144.56 69.4733 143.883C73.242 155.327 72.1105 151.359 75.3593 156.568C80.3555 159.679 90.156 161.446 92.5825 156.052C92.6406 155.596 92.7338 155.005 92.3516 154.663C90.3018 152.588 90.6259 152.026 83.7691 150.496C83.2667 150.33 83.2978 150.419 80.2826 150.389C79.8248 150.373 79.6857 150.507 78.1788 150.863C77.5212 151.019 76.8474 151.066 76.1844 151.185C76.8649 150.823 77.3429 150.165 78.0464 149.85C83.0358 148.499 84.2039 149.308 87.0598 149.298C90.1722 149.37 96.6483 155.225 97.6678 155.314C98.2417 155.551 100.183 155.662 100.263 155.662C100.44 155.73 100.638 155.75 100.813 155.654C103.212 155.441 102.757 155.334 103.457 153.942C103.647 153.638 103.48 153.28 103.398 152.97C103.469 151.883 102.201 151.132 101.653 150.357C94.0354 141.707 96.3715 144.552 95.3425 142.575C87.9996 128.04 92.0086 134.94 90.4531 131.157C90.3721 130.997 90.2897 130.879 87.6053 129.671C88.749 129.715 89.7793 130.309 90.9081 130.424C91.7467 129.392 92.3422 127.111 93.1902 126.235C92.7905 129.917 92.1059 131.828 94.4716 136.986C94.5378 137.43 94.6958 137.853 94.928 138.239C95.379 140.783 96.4849 141.442 98.933 145.091C99.1612 145.412 104.105 149.385 104.175 149.416C110.774 150.118 106.631 149.89 110.112 149.177C110.39 149.09 110.723 149.108 110.937 148.882C112.228 147.645 112.053 147.71 112.046 146.423C111.768 143.766 112.604 145.758 110.837 139.421C110.752 138.835 111.429 136.346 111.616 134.67C112.097 133.96 115.485 128.687 115.835 128.055C117.355 123.021 118.572 118.283 114.021 115.69C110.631 114.1 111.981 114.16 106.616 114.232C105.088 111.585 102.027 107.969 101.948 107.89C101.604 107.801 97.7907 107.139 97.0007 107.659C93.4197 110.123 94.2407 108.613 93.201 111.961C93.0106 112.539 92.808 113.115 92.6662 113.709C92.5015 112.749 93.0092 109.922 92.9566 109.137C93.0457 108.879 93.0686 108.574 93.2941 108.389C94.1894 107.616 96.0447 106.367 96.5902 105.681C97.5287 105.442 99.6041 106.155 101.038 106.177C101.559 106.345 102.117 106.306 102.645 106.437C103.349 106.85 103.913 107.454 104.53 107.981C108.254 110.736 104.332 110.223 116.923 114.016C117.686 114.262 117.662 114.772 118.865 115.666C120.616 113.551 123.305 109.717 128.15 109.673C127.905 109.198 128.248 108.674 128.255 108.177C128.474 107.556 128.598 106.907 128.694 106.257C128.886 105.818 129.029 105.362 129.233 104.928C132.951 98.2525 130.197 101.766 133.077 98.5712C134.279 97.4059 135.406 96.1663 136.665 95.0604C131.976 101.923 132.088 103.39 130.482 109.553C130.991 109.488 131.507 109.518 132.018 109.502C131.471 109.663 130.93 109.84 130.375 109.965C130.353 110.085 130.332 110.205 130.311 110.327C130.155 110.303 129.998 110.276 129.842 110.262C129.844 110.031 129.304 110.012 129.274 110.224C129.065 110.218 128.857 110.254 128.665 110.33C127.973 110.388 125.697 110.989 125.105 111.244C121.96 113.809 121.941 115.115 119.844 118.278C119.725 118.456 119.762 118.288 119.764 122.57C119.786 123.129 118.577 126.379 118.431 126.753C117.353 129.399 119.343 125.977 114.927 132.24C114.613 132.703 114.152 133.07 113.97 133.614C113.65 134.423 113.103 135.15 112.956 136.019C112.953 136.099 112.833 139.812 113.105 140.325C113.605 143.557 113.99 143.697 114.494 144.401C114.844 144.788 115.069 145.299 115.511 145.598C118.016 145.781 118.067 145.519 118.348 145.201C118.706 144.784 119.139 144.433 119.462 143.983C120.118 143.149 121.073 141.35 121.451 140.98C121.53 140.906 124.255 138.858 124.748 138.619C129.599 136.193 128.522 134.822 131.373 128.819C133.726 124.412 133.747 122.068 139.946 115.655C139.571 116.594 138.868 117.345 138.438 118.251C137.942 118.788 134.989 123.923 134.487 124.504C133.147 127.584 131.438 135.613 127.718 139.372C126.335 140.003 124.956 140.647 123.617 141.367L122.389 143.364V143.262C122.324 144 122.337 144.746 122.38 145.484V145.386C122.589 145.631 122.829 145.848 123.051 146.083C127.225 145.805 121.616 146.87 131.96 143.72C133.262 143.343 137.737 140.633 139.013 140.12C139.029 140.105 141.631 137.233 141.739 137.074C141.85 136.916 144.294 132.398 144.68 132.057C144.185 133.674 141.834 140.131 141.834 140.131L141.799 140.031C141.816 140.805 140.913 140.455 146.41 141.218C146.502 141.165 146.591 141.106 146.677 141.04C147.999 139.349 150.551 138.261 151.387 136.292C154.55 131.282 156.784 124.457 157.77 118.681C157.846 118.464 160.124 115.771 160.643 115.253C162.469 114.283 171.967 109.181 173.307 107.613C175.868 103.451 174.924 100.695 175.389 99.4003C175.369 99.3611 175.329 99.2841 175.309 99.245C175.073 97.7394 175.117 96.4147 174.926 95.8017C174.939 95.7099 174.965 95.5262 174.977 95.4344C175.282 96.1258 176.6 103.145 176.62 103.226C176.79 103.177 184.583 102.407 186.185 102.792L192.835 103.359C192.833 103.585 193.257 103.536 193.415 103.473C193.6 103.579 198.205 104.729 198.283 104.742L198.271 104.829C198.322 104.824 198.424 104.818 198.475 104.815C198.517 99.3314 196.925 97.7299 196.73 95.88C196.749 95.903 198.899 99.249 199.894 100.636C199.964 101.753 200.642 104.496 200.785 104.838C203.144 107.204 205.214 108.828 205.491 109.314C205.421 109.426 205.53 109.576 205.613 109.657C205.73 109.661 205.802 109.467 205.759 109.371L205.841 109.393C206.16 108.661 206.725 108.017 206.896 107.236C207.137 107.208 207.047 106.739 207.012 106.551C207.191 106.038 207.252 105.471 207.343 104.931L207.468 104.93C207.459 104.041 207.484 103.153 207.457 102.266L207.482 102.187C207.515 102.34 208.935 106.009 209.098 106.399C209.178 106.439 212.251 107.41 212.586 107.351C212.56 107.559 212.94 107.564 213.058 107.46C213.058 107.46 213.616 107.617 215.98 108.854C216.224 108.97 216.46 109.147 216.746 109.12C211.889 102.438 211.254 102.095 201.078 96.1055C198.246 95.6167 199.755 94.7052 190.867 94.3825C191.036 94.3109 191.212 94.2542 191.385 94.1894C191.89 94.1611 195.253 93.8167 196.521 93.467C196.712 93.5251 197.183 93.6169 197.238 93.3806C198.106 93.6196 198.432 93.9747 199.542 94.2758C199.542 94.2758 197.824 92.8607 196.825 91.9331C195.86 91.2633 195.584 90.2911 193.154 90.2816L193.148 90.1885C192.481 90.1642 191.837 89.9657 191.173 89.9197C190.952 89.805 190.699 89.8333 190.462 89.8495C190.452 89.6348 190.038 89.6794 189.89 89.7456C189.852 89.7145 189.778 89.651 189.741 89.62C189.543 89.6213 189.347 89.6254 189.154 89.6227V89.5228C187.593 89.4215 186.075 88.853 184.501 88.9597C183.727 89.1487 179.282 89.9143 178.277 89.9589L178.272 90.0642C178.042 90.071 177.802 90.0399 177.591 90.1439C176.747 90.1952 174.299 90.6287 174.282 90.6287L174.28 90.7394C174.202 90.7421 168.008 93.251 162.391 97.2533C162.311 97.3235 160.495 101.38 160.207 102.174C160.034 102.736 159.353 102.879 159.105 103.377C158.636 103.617 156.429 105.367 156.082 105.847C155.211 106.325 150.388 109.443 150.388 109.443C150.308 109.48 144.159 112.698 143.893 112.929C143.654 112.992 143.418 113.067 143.18 113.129C144.035 112.381 150.859 107.355 151.831 106.67C155.183 104.079 151.933 107.09 158.889 100.187C159.077 100.001 159.259 99.7959 159.34 99.5366C160.797 95.6451 160.887 97.8164 161.367 92.4718C161.601 93.4292 161.729 94.4095 161.902 95.379C162.952 94.8443 166.269 92.091 168.979 89.9994C169.473 89.9224 171.405 89.3472 171.507 89.3081C171.824 89.281 172.141 89.2135 172.43 89.069C172.719 89.0258 173.01 88.9718 173.284 88.8638C173.6 88.8354 173.916 88.7652 174.206 88.6288C174.458 88.5924 174.71 88.5276 174.946 88.4263C175.263 88.3966 175.579 88.3237 175.868 88.1846C177.281 87.924 178.657 87.4824 180.033 87.0787C180.357 87.2853 180.174 86.6452 179.962 86.918C179.811 86.5804 179.51 86.3455 179.247 86.0984C171.68 79.9464 182.018 85.7756 157.682 79.4792C156.412 79.2375 155.18 78.8108 153.897 78.6217C153.515 78.4489 151.627 77.9938 150.982 77.9344C150.729 77.8331 145.465 78.0978 145.08 78.1505C137.983 79.0498 138.484 77.2498 134.778 76.4086C134.126 76.0602 128.644 75.5025 128.566 75.4944C128.167 75.3216 127.731 75.435 127.327 75.512ZM119.375 81.086C119.401 81.4412 119.721 80.9159 119.375 81.086V81.086ZM119.679 81.1954C119.695 81.56 120.009 81.0266 119.679 81.1954V81.1954ZM199.609 94.3001C199.677 94.369 199.677 94.369 199.609 94.3001V94.3001ZM74.1495 96.7955C72.1294 97.7623 70.1674 98.8547 68.1068 99.7378C67.9326 99.8081 57.3827 109.029 57.3044 109.109C57.0721 109.21 56.8885 109.384 56.7386 109.583C55.0237 110.731 55.2357 110.728 54.7442 111.792C54.0812 113.499 53.6491 113.022 53.9245 115.698C62.1898 113.115 60.8233 113.915 62.445 110.504C63.9357 106.816 68.1041 101.885 68.1824 101.817C73.0463 98.5212 74.1846 98.2768 77.8682 96.539C74.8962 96.3891 74.6558 96.5862 74.1495 96.7955ZM184.914 104.124C183.707 104.237 182.51 104.44 181.3 104.514C180.876 104.656 180.396 104.491 180 104.702C178.065 104.699 178.212 104.819 175.444 108.198C169.978 112.165 174.03 110.045 167.024 113.091C164.847 113.928 166.606 113.114 162.335 116.393C160.415 118.233 161.736 116.199 159.226 121.051C158.968 121.514 158.865 122.044 158.604 122.507L158.625 122.408C157.55 125.125 157.495 130.621 151.964 141.1C152.452 141.146 157.821 140.236 160.188 138.879C160.349 138.796 164.684 136.636 164.82 136.522C165.442 136.025 167.203 134.823 167.431 134.718C167.325 134.996 164.231 138.331 164.014 138.604C163.483 138.986 161.116 139.827 160.498 140.347C160.363 140.248 160.201 140.423 160.13 140.527C160.033 140.687 160.307 140.722 160.386 140.625L160.353 140.702C163.007 141.311 162.474 141.75 164.107 141.623C164.138 141.835 164.558 141.828 164.705 141.712C165.676 142.094 179.726 143.705 182.952 142.568C184.079 142.428 187.639 141.439 187.99 141.381C189.018 140.763 189.907 139.937 190.95 139.344C191.368 138.964 192.264 137.522 192.693 137.256C192.657 137.486 192.6 137.714 192.582 137.948C192.451 138.278 192.405 138.635 192.346 138.983C192.229 139.215 192.139 139.464 192.13 139.727C191.987 140.007 191.903 140.312 191.915 140.628C191.757 140.722 187.308 144.868 184.783 146.145C197.662 151.31 200.376 155.712 203.296 158.726C203.166 158.688 203.036 158.652 202.911 158.615C202.843 158.436 195.997 152.742 195.641 152.75C186.247 147.462 174.912 144.722 173.346 144.035C172.139 143.888 166.342 142.613 164.866 142.409C164.721 142.381 153.729 141.882 153.63 141.93C153.479 141.797 153.373 141.823 153.317 142.003C152.69 141.934 150.724 142.254 150.632 142.289C150.319 142.294 148.146 142.536 147.93 142.641C147.566 142.638 142.047 143.245 141.935 143.319C139.406 143.389 127.77 146.12 124.296 146.931C103.226 153.783 100.822 157.341 91.5752 164.478C89.4674 165.945 89.9211 165.507 85.4515 172.669C84.9047 173.459 84.0607 177.289 83.9919 177.641C83.8001 179.066 84.2646 180.461 84.3281 181.876C84.3321 181.883 85.6973 184.048 85.7027 184.054C88.1832 185.751 88.1211 184.886 91.1066 185.184C90.5679 185.59 89.3931 187.57 88.6977 188.025C89.0001 188.433 89.1649 188.931 89.4957 189.317C91.166 192.704 95.6288 195.795 98.9749 197.524C113.272 201.115 110.585 200.763 116.713 199.188C111.302 194.797 110.849 194.694 110.332 194.007C113.738 195.823 113.676 197.03 121.764 197.831C122.388 197.993 127.531 196.887 127.611 196.843C134.082 194.693 132.101 195.498 133.568 195.784C134.631 196.225 135.794 196.382 136.939 196.344C137.272 196.574 137.706 196.435 138.085 196.489C138.377 196.617 138.716 196.616 139.009 196.49C139.315 196.46 139.654 196.531 139.928 196.358C142.634 196.459 142.611 195.966 147.574 192.725C148.789 193.078 150.667 193.884 151.036 193.908C151.283 194.08 156.219 194.386 156.394 194.384C157.554 193.961 158.21 193.938 162.849 192.133C163.304 191.926 164.879 191.979 165.309 191.829C169.713 191.61 169.002 191.598 173.262 190.334C177.968 188.851 175.062 190.907 180.444 184.732C180.452 184.791 180.467 184.913 180.477 184.975C180.452 185.027 180.158 187.142 180.058 189.452C180.716 189.447 181.35 189.654 182.001 189.717C183.353 190.09 184.335 189.55 186.133 189.444C191.309 187.598 192.295 186.426 193.564 185.006C196.286 181.865 194.343 185.624 198.996 178.231C205.482 167.934 202.897 171.011 205.271 165.879C205.187 165.871 197.549 164.846 196.716 164.712C196.258 164.604 178.481 163.273 176.89 164.404C174.724 164.401 167.495 165.754 166.049 165.881C165.664 165.846 165.293 165.703 164.902 165.725C164.626 165.545 164.283 165.618 163.975 165.591C159.716 164.659 162.907 166.024 156.968 163.066C156.661 162.853 145.42 164.01 145.151 164.176C144.904 164.176 144.648 164.164 144.415 164.257C143.962 164.324 143.451 164.154 143.044 164.403C141.854 164.315 134.812 164.932 131.288 166.041C120.046 166.147 111.199 168.385 102.148 172.719C98.5698 174.734 102.795 171.188 96.0906 178.536C95.6882 180.131 95.3034 181.734 94.8551 183.318C94.7727 181.766 94.8456 180.212 94.7997 178.661C94.4946 179.117 92.199 182.232 91.6886 182.42C92.3638 181.544 94.6431 177.967 94.7592 177.734C92.7756 177.562 94.531 178.254 90.472 176.075C90.2978 175.497 90.1641 174.866 90.1668 174.252C91.3038 174.535 92.4488 174.797 93.5831 175.08C94.3217 175.023 95.0725 174.915 95.78 174.712C95.9623 174.77 96.4431 174.837 96.4552 174.585C96.8076 174.523 97.0493 174.201 97.3437 174.017C104.388 169.006 97.8555 172.583 110.457 167.492C110.995 167.376 121.417 164.636 122.929 164.133C121.983 162.257 121.737 162.242 120.925 157.974C121.17 157.215 122.412 154.805 122.639 154.47C122.762 155.919 122.648 157.376 122.705 158.827C123.067 159.561 123.131 160.399 123.511 161.128C123.544 161.157 126.392 163.058 126.752 163.21C127.473 163.464 131.143 163.756 131.477 163.653C133.626 163.162 135.782 162.681 137.907 162.096C138.782 161.932 146.498 162.834 147.698 161.952C148.402 161.97 155.776 161.216 156.283 161.153C156.571 160.522 157.542 156.73 157.561 156.651C158.754 156.242 159.878 155.642 161.085 155.267C160.494 156.323 159.69 157.238 159.008 158.233C158.927 159.216 158.788 160.202 158.525 161.157C162.682 164.721 164.349 163.94 171.842 163.063C187.415 161.44 196.347 162.842 197.09 162.839C197.18 162.899 202.653 163.548 203.571 163.489L203.568 163.63C203.937 163.63 204.307 163.626 204.676 163.647C204.847 163.718 205.036 163.717 205.224 163.734C205.194 163.656 204.427 161.467 204.369 161.134C205.214 161.843 205.656 162.102 206.584 162.87C209.414 160.068 216.534 158.023 217.944 156.905C217.944 156.905 220.817 150.466 220.904 150.303C221.336 150.293 221.769 150.291 222.205 150.299C222.204 150.301 220.13 157.405 220.069 157.568C218.809 158.283 217.435 158.761 216.157 159.443C208.436 163.221 210.232 162.24 209.369 163.529C203.743 172.465 205.485 169.33 203.421 177C203.162 178.215 203.208 177.287 203.859 179.432C204.15 179.953 203.324 179.837 208.775 179.829C208.825 179.883 216.538 186.737 216.735 186.86C222.692 187.89 219.981 188.155 222.053 187.197C223.338 186.572 229.673 179.286 229.556 170.097C230.217 168.668 228.784 165.294 228.501 164.274C226.548 165.363 224.667 166.585 222.636 167.525C228.925 162.346 226.512 165.289 229.235 161.412C229.525 160.823 229.446 160.156 229.451 159.523C229.513 159.318 229.563 159.107 229.573 158.892C229.741 158.414 229.663 157.9 229.663 157.405L229.515 157.414C228.899 153.654 229.153 157.584 228.541 151.31C228.484 150.505 228.719 149.714 228.66 148.909C228.869 148.516 228.767 148.059 228.772 147.635C228.969 146.834 229 147.055 228.109 146.153C227.84 145.693 227.002 144.968 226.626 144.985C226.765 144.702 226.124 144.69 226.267 144.975L226.186 144.968C225.894 145.407 225.576 145.831 225.192 146.195C223.053 146.206 220.916 146.197 218.777 146.199L218.799 146.321H218.701C218.133 147.798 216.16 151.478 215.921 151.988C215.841 152.05 210.537 155.326 210.313 155.426C210.425 155.218 213.897 151.456 213.977 151.379C214.282 150.873 214.873 150.572 215.039 149.981C215.512 148.734 216.711 146.34 216.661 145.848C216.884 145.848 216.841 145.426 216.774 145.274C216.964 145.019 216.776 145.243 217.112 143.316C216.743 142.666 214.594 140.194 214.083 139.831L214.176 139.849C214.029 139.803 212.664 139.427 212.277 139.409C211.657 139.191 210.999 139.129 210.363 138.972C210.374 138.324 210.745 137.741 210.687 136.888C210.741 136.855 210.849 136.79 210.902 136.758C215.8 139.579 215.804 137.918 219.393 143.181C219.896 143.272 220.395 143.391 220.896 143.503C221.311 143.418 224.428 142.359 224.81 141.685C225.115 141.222 225.83 141.067 225.921 140.473C226.051 140.117 226.124 137.317 226.131 137.237C226.281 136.871 226.21 136.465 226.223 136.08C226.418 136.064 226.418 135.489 226.227 135.463C226.224 135.414 226.216 135.314 226.212 135.264C223.731 128.559 223.684 129.125 223.002 128.671C221.65 127.809 220.457 126.722 219.104 125.864C217.134 127.799 211.433 134.962 211.26 135.237C210.706 135.456 210.117 135.624 209.565 135.856C209.282 135.879 209.01 135.961 208.76 136.087C208.278 136.179 207.846 136.415 207.386 136.57C207.236 137.247 206.924 137.864 206.619 138.48C206.535 138.891 206.562 139.326 206.597 139.743C206.781 140.196 206.933 140.659 207.035 141.138C207.02 141.132 204.075 139.839 204.037 139.827C203.988 138.97 204.033 138.11 204.019 137.251C204.098 137.183 205.91 135.54 206.154 135.128C206.335 135.104 206.531 135.111 206.701 135.025C210.329 134.585 210.143 134.084 212.543 131.752C213.247 131.065 213.562 130.112 214.087 129.301C215.947 126.321 215.756 125.621 216.669 123.352C216.522 123.021 216.436 122.669 216.427 122.307L216.379 122.229C215.69 118.883 216.357 120.204 211.97 116.622C205.964 114.382 209.833 113.434 203.856 115.181C197.634 119.54 203.261 115.882 197.46 122.551C192.815 129.36 196.289 123.544 193.144 131.114C192.966 131.534 193.646 133.154 193.679 133.234C193.698 133.587 193.775 133.938 193.91 134.268C193.912 134.323 193.916 134.433 193.919 134.488C193.565 134.182 191.84 131.904 191.734 131.633C191.674 130.615 191.293 129.626 191.383 128.599C191.597 128.301 194.664 122.458 197.605 119.593C197.68 119.428 198.339 117.305 198.393 116.921C198.632 116.451 198.682 115.915 198.88 115.431C198.956 115.081 202.199 113.643 203.482 112.786C203.323 112.519 199.944 107.803 199.442 107.624C199.364 107.59 195.063 105.662 194.81 105.486C194.712 105.416 194.604 105.385 194.486 105.394L194.482 105.259C194.118 105.258 193.753 105.265 193.391 105.238C193.329 105.213 189.682 104.648 188.826 104.595L188.823 104.494C187.822 104.449 186.844 104.203 185.844 104.122C185.553 103.994 185.203 103.999 184.914 104.124ZM207.826 109.506C207.336 110.023 206.785 110.486 206.334 111.039C206.551 111.573 206.801 112.109 207.144 112.579C208.127 112.546 209.103 112.698 210.074 112.845C212.079 114.187 216.291 116.629 216.291 116.629C216.634 117.058 218.464 120.159 218.757 120.699C218.981 121.815 219.096 122.958 219.256 124.088C219.304 124.104 219.401 124.134 219.448 124.147L219.462 124.209C220.523 124.621 221.445 125.317 222.508 125.727C223.268 126.338 224.065 126.902 224.834 127.502C225.063 126.822 225.111 126.085 225.443 125.444C219.377 113.268 222.388 118.59 220.434 116.039C220.106 115.568 219.636 115.219 219.344 114.721C219.194 114.599 219.034 114.49 218.862 114.41C219.189 115.47 219.925 117.725 220.08 118.856C219.664 118.349 216.341 112.149 216.301 112.069C212.938 109.016 211.882 109.353 209.134 108.238C208.656 108.615 208.268 109.09 207.826 109.506ZM216.697 109.166C216.766 109.236 216.766 109.236 216.697 109.166V109.166ZM56.8061 116.444C56.4348 116.425 53.8368 117.174 53.587 117.286C49.5549 119.103 50.8013 118.434 48.0115 121.703C47.5322 122.264 47.389 122.037 46.1035 124.454C45.0395 126.437 45.1516 125.741 45.1246 126.894C45.1502 127.839 44.7924 130.434 45.9253 132.074C51.413 131.882 49.0715 129.994 50.9376 128.921C50.1005 127.231 50.4691 127.19 50.087 125.575C50.041 125.322 49.9317 125.03 50.1221 124.81C52.2015 121.591 51.4035 121.52 54.1433 119.401C54.304 119.28 56.7534 117.004 57.1369 116.54C57.5434 116.434 56.8371 116.132 56.8061 116.444ZM223.641 118.411C226.819 125.111 228.972 125.269 226.559 129.767C228.482 134.855 227.771 135.377 228.53 137.563C228.548 137.88 228.528 138.203 228.621 138.513L228.646 138.399C228.613 138.627 228.677 138.246 228.139 140.883C228.23 141.344 229.243 143.555 229.81 145.214L229.868 145.195C229.947 145.481 230.044 145.76 230.171 146.029C230.228 145.704 230.282 145.376 230.315 145.046C230.476 144.868 231.308 141.589 231.437 139.764H231.316C231.369 138.346 230.633 133.234 230.41 130.53L230.356 130.432C230.076 126.077 229.286 124.686 227.242 120.882C226.394 120.177 224.362 118.81 223.988 118.661C224.009 118.484 223.741 118.495 223.641 118.411ZM52.9604 130.313C50.6851 131.192 51.6101 130.919 51.0592 133.408C51.0389 133.487 50.7824 139.607 49.721 141.273C48.5314 143.189 47.4606 146.063 47.7793 148.394C48.2519 151.329 47.6591 149.703 49.3335 151.96C49.6414 152.407 52.8308 154.876 53.5383 155.084C56.3132 156.058 57.014 156.522 58.2725 156.892C68.5713 159.889 63.7912 159.496 70.3983 159.496C68.4606 157.95 68.9521 157.481 66.7066 156.675C60.2804 154.741 60.6126 155.214 55.5922 151.583C55.0453 151.067 54.7698 150.346 54.3053 149.767C53.2021 148.059 54.1959 150.407 51.7951 144.97C51.7046 143.785 52.0679 142.632 52.1421 141.457C52.6012 140.999 53.036 140.516 53.5289 140.095C53.2035 143.289 52.1111 145.444 56.6035 150.794C58.2307 152.959 70.3078 155.913 71.6055 157.32C76.1101 162.06 82.1136 163.695 88.5924 164.003C89.9643 164.08 89.1176 163.94 91.0378 162.389L93.7532 160.44C94.7997 159.107 95.0684 156.524 95.1306 156.204C94.7403 155.971 94.3582 155.728 93.9652 155.5C93.6506 156.529 93.413 158.603 92.7959 159.038C90.1965 161.008 91 160.729 89.8941 160.908C89.4106 160.958 85.677 161.313 84.8398 161.178C78.38 160.928 79.8694 161.012 77.4213 159.5C73.847 157.346 74.8395 157.631 73.396 156.088C73.0773 155.637 72.6155 155.308 72.3049 154.852C71.993 154.174 71.7311 153.472 71.3948 152.805C71.2963 152.814 71.1963 152.824 71.0978 152.836C71.0856 152.804 68.6105 146.658 68.6105 146.658C64.8404 146.229 59.0544 146.931 57.2301 135.765C57.3597 133.965 57.4475 132.16 57.6325 130.363C56.4429 130.79 54.4633 129.77 52.9604 130.313ZM48.1911 133.617C47.2891 134.132 46.248 134.354 45.3892 134.946L43.4407 138.436C41.7528 141.866 42.4456 141.21 41.4301 143.616C41.2451 144.054 41.2559 148.354 41.4045 148.904C41.8339 151.756 41.341 151.105 43.1113 154.155C43.0383 154.266 43.1626 154.477 43.3003 154.45C43.3935 154.396 43.4974 154.259 43.4367 154.154C43.8958 153.442 43.9457 152.648 45.4675 151.222C45.4905 144.548 45.3096 147.532 46.352 144.125C46.6302 143.025 48.3329 140.024 48.4369 139.878C49.0972 138.918 48.5544 139.824 49.0324 133.529C48.7488 133.523 48.4625 133.529 48.1911 133.617ZM233.001 136.584C232.958 136.877 232.965 137.194 233.156 137.44C233.031 138.245 233.127 139.067 233.1 139.88L233.213 139.883C233.277 141.121 232.747 144.064 231.887 145.872C231.158 147.636 230.515 148.406 230.575 148.847C231.944 161.116 231.782 153.492 230.811 163.098C230.742 163.979 230.333 163.973 231.525 167.178C231.637 170.907 231.327 172.792 231.327 172.792C232.935 170.301 233.76 163.845 233.449 163.058C233.387 162.348 233.575 161.6 233.329 160.916C233.3 160.373 233.381 159.814 233.224 159.288C233.213 158.903 233.293 158.49 233.092 158.139C233.152 155.457 233.953 145.743 233.84 143.869C233.927 143.732 233.933 143.527 233.864 143.384C233.891 143.353 233.948 143.287 233.973 143.254C233.919 143.103 233.536 138.504 233.468 138.417C233.399 138.118 233.377 137.792 233.216 137.528C233.213 137.199 233.11 136.885 233.001 136.584ZM236.01 144.617C234.424 150.735 236.157 163.212 235.413 165.594C234.522 170.363 235.823 170.324 225.007 187.482C224.288 188.61 224.593 188.6 222.682 189.51C222.654 190.229 222.725 190.953 222.635 191.668C221.883 195.155 222.153 195.864 221.748 196.313C218.759 199.534 221.442 198.298 215.265 199.601C214.83 199.7 214.386 199.684 213.947 199.688C213.095 199.245 209.969 199.875 208.319 198.717C207.947 198.445 204.745 196.143 203.633 195.529C202.868 195.361 202.078 195.256 201.295 195.241C200.902 195.045 200.455 195.128 200.035 195.116C191.848 191.927 198.925 195.634 191.055 189.91C189.728 190.696 188.302 191.304 186.941 192.03C188.226 194.401 186.101 192.431 190.585 196.03C191.233 196.443 191.952 196.731 192.631 197.091C194.486 197.926 194.053 198.344 196.327 198.36C196.864 198.553 199.526 198.499 200.082 198.628C200.518 198.694 205.606 200.204 208.763 202.264C209.036 202.463 213.395 203.247 213.75 203.244C214.16 203.41 214.641 203.417 215.05 203.238C223.168 201.049 219.606 202.878 225.199 198.88C225.924 198.381 226.583 197.781 227.364 197.361C226.819 198.306 226.012 199.062 225.356 199.927C224.293 201.174 224.716 201.808 218.303 204.534C219.86 204.561 221.421 204.573 222.976 204.531C228.339 201.804 229.451 199.4 230.741 198.209C230.81 198.146 234.59 192.916 234.755 192.613C234.983 192.38 235.29 192.091 235.181 191.73C235.479 189.907 235.591 188.052 235.991 186.244C233.21 189.888 230.565 192.844 230.565 192.844C231.134 191.745 234.368 186.087 235.398 183.689L235.541 183.708C235.541 183.657 235.548 175.52 235.556 175.47C236.29 176.452 236.573 177.703 237.361 178.647C237.598 177.661 239.08 170.675 239.102 169.727C239.079 161.047 239.16 161.462 238.996 161.028C238.965 159.209 238.482 155.916 238.423 155.811C238.234 150.025 236.959 147.301 236.01 144.617ZM47.2324 153.862C46.8638 154.758 46.7314 155.723 46.4465 156.645C46.271 157.038 47.3202 159.806 47.624 160.326C54.8805 164.969 51.4818 160.12 70.0783 165.405C72.9868 166.484 78.2584 170.801 78.2584 170.801C78.4893 171.069 78.8674 170.96 79.1767 170.971C79.417 171.027 79.6655 171.046 79.9126 171.064C81.248 171.586 82.7496 171.118 84.0432 170.498C83.9419 170.332 81.0725 165.698 80.4729 165.433C80.4284 165.41 72.2401 161.371 72.1915 161.383C65.1064 162.392 66.3582 162.055 64.7851 161.839C64.4664 161.671 64.1086 161.601 63.7507 161.601C63.0985 161.355 62.4018 161.275 61.732 161.095C55.8487 159.814 55.9892 159.106 52.6512 157.963C49.9519 157.094 49.8358 156.368 49.3551 155.934C48.6435 155.248 47.9751 154.514 47.2324 153.862ZM44.2671 158.379C44.2469 158.676 44.1591 161.574 44.3346 161.956C45.8132 165.371 44.9598 164.55 46.4371 165.731C48.7123 167.534 48.8582 167.557 49.0972 167.614C51.9058 168.288 52.8483 169.267 56.4023 169.534C70.1444 171.397 68.0042 172.41 79.9882 176.755C80.7012 176.793 81.4047 176.604 82.1122 176.549C82.2878 175.644 82.6132 174.769 82.7199 173.851C80.2745 173.82 81.51 175.205 75.3701 170.643C69.8042 166.426 71.1977 167.45 66.1448 166.004C63.8182 165.405 58.4305 164.458 57.646 164.482C57.488 164.427 57.3219 164.4 57.1558 164.388L57.0559 164.308C56.2363 164.141 51.5858 164.423 51.0322 164.144C50.9525 164.107 47.4701 162.446 47.3094 162.304C45.3217 160.545 45.0381 160.617 44.8869 160.184C44.6641 159.589 44.5372 158.957 44.2671 158.379ZM231.225 172.858C231.049 173.187 231.593 172.88 231.225 172.858V172.858ZM192.742 188.666C196.536 192.676 195.95 191.954 199.03 192.908C201.5 193.459 198.607 193.214 204.457 192.396C205.208 193.505 206.188 194.434 206.952 195.534C207.494 196.365 208.519 196.604 209.368 196.997C211.053 197.635 211.113 198.264 213.129 198.243V198.117C213.631 198.147 216.838 197.845 216.997 197.778C217.987 197.352 218.99 196.957 219.979 196.524C220.391 195.055 220.466 193.513 220.86 192.04C220.547 191.069 219.973 190.199 219.713 189.207C214.48 187.72 215.983 189.309 214.031 187.235C213.827 187.035 210.093 182.916 209.85 182.766C208.355 182.516 207.56 181.999 203.008 181.396C202.472 181.326 201.943 181.22 201.419 181.094C201.219 180.415 201.061 179.725 200.888 179.039C199.896 180.939 192.8 188.587 192.742 188.666Z" fill="black"/>
</g>
<path d="M163.233 87.126C162.47 87.2489 161.728 86.9963 160.973 86.9423C154.136 86.0214 157.604 86.3266 151.872 87.5122C151.303 87.6526 151.541 87.2691 148.85 90.6084C148.778 92.5043 148.958 94.076 148.713 94.6742C147.692 97.175 148.152 97.1925 147.186 98.0311C146.585 98.5253 146.052 99.1127 145.359 99.4827C145.57 98.2579 147.352 95.722 146.573 93.3522C145.132 90.3438 146.173 91.0189 142.524 88.8584C139.354 86.9126 140.058 87.7998 135.375 87.2272C134.366 87.0315 133.628 87.8565 127.677 90.6017C127.15 90.1709 126.624 89.724 126.043 89.3688C118.399 88.0361 114.551 90.9744 110.961 93.3239C109.39 94.4622 106.233 95.267 102.912 96.7834C102.602 96.8644 96.451 97.7867 95.7596 97.6665C92.743 96.8036 92.3839 96.8793 90.9282 96.431C106.401 96.061 105.054 93.945 111.099 91.0216C113.202 89.8779 116.621 87.9051 117.362 87.7849C123.356 86.6898 119.14 85.7838 127.071 86.8006C127.874 86.9099 128.702 87.2826 129.494 86.9086C130.679 86.5008 131.897 86.1443 133.005 85.5448C135.244 84.8845 142.972 85.9296 145.292 86.5521C148.578 87.4068 147.936 80.523 163.233 87.126Z" fill="#222222"/>
<path d="M124.783 94.2542C122.704 104.161 123.642 103.952 124.34 107.032C121.684 104.818 122.153 104.815 121.788 101.265C121.768 101.142 121.484 97.2803 124.783 94.2542Z" fill="#222222"/>
<path d="M193.654 112.791C191.37 114.246 188.404 115.751 185.234 118.311C186.583 119.15 188.067 119.736 189.441 120.529C181.884 119.512 184.745 119.374 179.07 120.476C176.536 121.036 178.343 119.726 171.563 125.068C171.515 125.148 168.283 130.044 168.17 130.172C168.547 127.508 168.256 128.175 169.177 126.23C170.63 123.37 170.11 124.4 171.98 122.709C175.471 119.81 175.436 119.978 175.64 119.6C187.77 117.593 182.729 115.229 193.654 112.791Z" fill="#222222"/>
<path d="M196.042 141.356C196.56 142.521 197.042 146.629 197.732 147.055L200.949 149.279C201.224 149.563 203.564 149.738 205.802 150.195C206.458 150.366 207.484 149.79 207.795 149.68C210.309 148.665 208.802 149.644 210.238 147.975C210.771 147.285 211.379 146.645 211.797 145.872C211.855 145.729 211.994 145.659 212.119 145.581C212.097 145.621 211.281 147.641 210.4 149.463C209.477 150.357 207.783 151.571 207.509 152.064C207.509 152.064 203.217 151.629 203.216 151.629C203.138 151.571 198.561 149.568 198.065 149.499C196.747 146.355 195.684 148.404 196.042 141.356Z" fill="#222222"/>
<path d="M179.696 149.886C180.658 150.279 185.206 151.487 186.444 151.796C186.524 151.833 197.237 157.025 198.224 157.596C198.146 157.576 183.361 152.127 182.042 151.988C182.042 151.988 175.785 151.715 172.837 151.649C172.633 151.64 166.235 152.399 165.927 152.423C166.451 151.771 167.237 151.376 167.687 150.655C169.362 150.663 171.91 149.436 179.696 149.886Z" fill="#222222"/>
<path d="M138.974 170.115L145.038 174.664C153.468 178.138 151.276 176.982 154.574 177.443C156.753 177.798 157.524 177.825 161.517 176.52C162.262 176.495 160.845 174.388 160.488 172.478C161.287 172.973 161.171 173.077 165.233 176.334C166.205 176.723 169.519 176.978 171.79 177.533C173.406 177.832 173.94 177.377 179.919 177.127C196.332 172.522 189.559 173.899 196.857 171.369C196.779 171.449 191.044 176.099 190.424 176.43C190.345 176.477 186.884 178.485 186.691 178.686C186.252 179.721 185.057 181.959 185.057 181.959C184.964 180.954 184.609 178.724 184.598 178.644C184.52 178.651 174.951 180.463 169.187 179.145C169.107 179.127 163.321 177.819 162.65 177.774C161.221 178.423 159.29 179.525 158.974 179.495C152.456 179.511 152.743 179.515 152.405 179.393C151.661 179.155 146.784 178.05 143.763 176.489C136.23 180.6 131.324 179.938 127.117 179.934C125.734 179.646 124.419 179.093 123.087 178.632C122.029 177.907 120.966 177.174 119.965 176.369C127.038 178.338 127.577 179.567 136.906 177.51C137.473 177.355 138.077 177.287 138.585 176.97C139.8 176.163 141.161 175.6 142.321 174.702C141.25 173.141 140.046 171.674 138.974 170.115Z" fill="#222222"/>
<path d="M122.378 181.829C118.213 184.759 117.685 184.544 117.816 184.89C118.4 185.312 120.996 186.629 121.407 186.861C123.727 187.388 124.859 188.51 130.669 188.576C142.968 188.535 145.834 186.402 154.244 183.974C154.736 183.874 155.157 183.524 155.682 183.588C152.362 185.188 144.118 188.738 137.86 190.334C131.771 190.835 122.98 191.328 117.571 188.477C115.504 187.44 114.125 185.59 113.481 185.712C110.388 186.282 106.805 186.428 100.395 191.05C98.6034 192.154 99.77 191.481 96.5009 192.11C95.553 191.922 94.6578 191.543 93.772 191.17C99.6256 190.807 96.3605 191.737 99.2947 190.169C102.286 188.445 101.064 188.579 105.318 185.762C105.398 185.715 108.296 183.962 108.651 183.882C116.833 182.076 113.4 182.37 118.765 182.001C118.944 181.962 121.256 181.77 122.378 181.829Z" fill="#222222"/>
<path d="M63.6954 254.705C63.2377 255.314 62.553 255.696 61.7901 255.696C61.3337 255.696 60.876 255.543 60.4952 255.314C60.0388 255.01 59.6566 254.705 59.2002 254.4C58.1335 253.638 57.9053 252.266 58.6669 251.201C59.4284 250.134 60.8003 249.904 61.8671 250.667C62.2479 250.971 62.7043 251.276 63.0851 251.504C64.1518 252.19 64.457 253.638 63.6954 254.705ZM49.1431 240.458C48.229 239.619 46.7814 239.695 45.9429 240.61C45.1044 241.524 45.1813 242.972 46.0955 243.809C46.4763 244.191 46.8571 244.495 47.2378 244.8C47.6956 245.181 48.229 245.409 48.7623 245.409C49.3713 245.409 50.0573 245.181 50.4381 244.648C51.2766 243.733 51.1997 242.286 50.2099 241.447C49.9047 241.067 49.5239 240.761 49.1431 240.458ZM36.114 46.1711C35.7332 46.5519 35.428 46.9327 35.1242 47.3148C34.2857 48.229 34.3613 49.6765 35.3524 50.5137C35.8102 50.8958 36.3422 51.124 36.8756 51.124C37.4859 51.124 38.1719 50.8958 38.5527 50.3625C38.8565 49.9803 39.2386 49.5995 39.5424 49.2188C40.381 48.3046 40.3054 46.8571 39.3899 46.0185C38.4001 45.1044 36.9525 45.1813 36.114 46.1711ZM27.734 215.771C27.048 214.704 25.6005 214.476 24.5338 215.162C23.467 215.848 23.2375 217.296 23.9234 218.362C24.2286 218.819 24.5338 219.2 24.762 219.657C25.2197 220.266 25.9043 220.647 26.6672 220.647C27.1236 220.647 27.5814 220.495 27.9622 220.266C29.0289 219.58 29.2571 218.133 28.5712 217.066C28.343 216.61 28.0378 216.229 27.734 215.771ZM28.7238 58.8194C27.657 58.0565 26.2851 58.3617 25.5235 59.3528C25.2197 59.8092 24.9145 60.19 24.6094 60.6478C23.9234 61.7145 24.153 63.0851 25.2197 63.848C25.6005 64.1518 26.0569 64.2288 26.5147 64.2288C27.2762 64.2288 27.9622 63.848 28.4186 63.2377C28.7238 62.8569 28.952 62.4005 29.2571 62.0197C30.0187 60.9529 29.7905 59.5054 28.7238 58.8194ZM37.7141 228.723C36.8756 227.734 35.428 227.657 34.5139 228.495C33.5997 229.334 33.4471 230.781 34.2857 231.695C34.5909 232.076 34.9716 232.457 35.2768 232.838C35.7332 233.371 36.3422 233.601 36.9525 233.601C37.4859 233.601 38.0193 233.448 38.4757 232.99C39.3899 232.152 39.5424 230.704 38.6283 229.79C38.4001 229.486 38.0193 229.104 37.7141 228.723ZM92.0384 266.667C91.5806 266.514 91.1242 266.286 90.6665 266.134C89.5241 265.676 88.1522 266.286 87.6958 267.429C87.238 268.571 87.847 269.943 88.9907 270.401C89.4471 270.552 89.9805 270.781 90.4383 270.933C90.6665 271.01 90.9716 271.085 91.2768 271.085C92.191 271.085 93.1051 270.552 93.409 269.638C93.8667 268.418 93.2577 267.123 92.0384 266.667ZM91.5806 8.60957C91.1242 8.76215 90.5909 8.99035 90.1331 9.14294C88.9907 9.59934 88.3804 10.8956 88.8382 12.1136C89.2189 13.0291 90.0575 13.5625 90.9716 13.5625C91.2768 13.5625 91.505 13.4855 91.8102 13.4099C92.2666 13.2573 92.7243 13.0291 93.1807 12.8765C94.4001 12.4188 95.0091 11.1238 94.5527 9.90451C94.0949 8.76215 92.8 8.15181 91.5806 8.60957ZM107.81 3.7336C107.277 3.88619 106.819 3.96181 106.285 4.11439C105.066 4.41956 104.305 5.63754 104.61 6.85687C104.838 7.92361 105.829 8.60957 106.819 8.60957C106.971 8.60957 107.2 8.60957 107.352 8.53395C107.81 8.38137 108.343 8.3044 108.8 8.15181C110.019 7.84799 110.781 6.62867 110.477 5.40934C110.172 4.19001 109.028 3.42843 107.81 3.7336ZM77.1809 259.961C76.7232 259.733 76.2668 259.505 75.886 259.277C74.7423 258.666 73.3717 259.124 72.7614 260.191C72.1524 261.333 72.6101 262.705 73.6755 263.314C74.1333 263.542 74.591 263.772 75.0475 264.076C75.3526 264.228 75.7334 264.305 76.1142 264.305C76.9527 264.305 77.7143 263.848 78.1721 263.086C78.7054 261.942 78.2477 260.572 77.1809 259.961ZM61.5619 24.0004C61.1042 24.3042 60.7234 24.6094 60.267 24.8376C59.2002 25.5235 58.972 26.9711 59.6566 28.0378C60.1144 28.6481 60.8003 29.0289 61.5619 29.0289C62.0197 29.0289 62.4761 28.8764 62.8569 28.6481C63.2377 28.343 63.6954 28.1148 64.0762 27.8096C65.1429 27.1236 65.3711 25.6761 64.6852 24.6094C64.0762 23.5426 62.6287 23.3144 61.5619 24.0004ZM76.1142 15.3908C75.6578 15.619 75.2 15.8472 74.7423 16.0768C73.5999 16.6858 73.2191 18.0577 73.7525 19.2C74.1333 19.9616 74.9718 20.4194 75.809 20.4194C76.1898 20.4194 76.572 20.3424 76.8758 20.1898C77.3335 19.9616 77.7899 19.7334 78.1721 19.5052C79.3144 18.8949 79.7708 17.5243 79.1618 16.4576C78.5529 15.3908 77.2566 14.7805 76.1142 15.3908ZM107.657 271.543C107.2 271.39 106.666 271.315 106.21 271.162C104.991 270.857 103.771 271.619 103.39 272.838C103.085 274.057 103.848 275.277 105.066 275.657C105.6 275.81 106.057 275.886 106.591 276.038C106.743 276.114 106.971 276.114 107.124 276.114C108.114 276.114 109.105 275.429 109.333 274.362C109.638 273.066 108.877 271.848 107.657 271.543ZM5.63754 109.41C5.79012 109.486 6.01968 109.486 6.17091 109.486C7.23765 109.486 8.15181 108.8 8.38137 107.733C8.53395 107.277 8.60957 106.743 8.76215 106.285C9.06732 105.066 8.3044 103.848 7.08507 103.543C5.86709 103.238 4.64776 103.999 4.34259 105.219C4.19001 105.752 4.11439 106.21 3.96181 106.743C3.65664 107.886 4.41956 109.105 5.63754 109.41ZM267.123 93.3333C267.429 94.2475 268.343 94.8565 269.257 94.8565C269.485 94.8565 269.79 94.7809 270.019 94.7052C271.238 94.2475 271.848 92.9525 271.39 91.8102C271.238 91.3524 271.01 90.8191 270.857 90.3613C270.399 89.2189 269.104 88.61 267.885 89.0664C266.743 89.5241 266.134 90.8191 266.59 92.0384C266.82 92.4192 266.971 92.8756 267.123 93.3333ZM2.97203 125.791C3.04765 125.791 3.12326 125.791 3.27585 125.791C4.41956 125.791 5.40934 124.952 5.56192 123.81C5.63754 123.352 5.71451 122.819 5.71451 122.362C5.86709 121.143 5.02855 120.001 3.7336 119.771C2.51428 119.618 1.37191 120.457 1.14236 121.752C1.06674 122.285 0.991127 122.743 0.991127 123.276C0.838542 124.571 1.7527 125.638 2.97203 125.791ZM4.57079 140.115V139.962C4.57079 139.504 4.57079 139.048 4.57079 138.667C4.57079 137.371 3.58102 136.381 2.28607 136.381C1.06674 136.381 0 137.371 0 138.667C0 139.124 0 139.581 0 140.038V140.19C0 141.485 0.991127 142.476 2.28607 142.476C3.58102 142.476 4.57079 141.41 4.57079 140.115ZM274.438 123.582C274.514 124.038 274.591 124.571 274.591 125.029C274.743 126.171 275.733 127.086 276.877 127.086C276.952 127.086 277.028 127.086 277.105 127.086C278.324 126.933 279.238 125.791 279.161 124.571C279.086 124.038 279.009 123.582 279.009 123.048C278.858 121.829 277.714 120.915 276.495 121.067C275.124 121.219 274.285 122.362 274.438 123.582ZM271.466 107.505C271.619 107.963 271.696 108.495 271.848 108.952C272.076 110.019 273.066 110.705 274.057 110.705C274.21 110.705 274.438 110.705 274.591 110.628C275.81 110.324 276.572 109.105 276.266 107.886C276.114 107.352 276.038 106.896 275.886 106.362C275.58 105.143 274.362 104.382 273.143 104.685C271.924 105.066 271.162 106.285 271.466 107.505ZM12.8765 186.742C12.4188 185.524 11.1238 184.914 9.90451 185.372C8.68519 185.828 8.0762 187.124 8.53395 188.342C8.68519 188.8 8.91474 189.334 9.06732 189.79C9.44811 190.704 10.2853 191.237 11.1995 191.237C11.5046 191.237 11.7328 191.162 12.038 191.086C13.1804 190.628 13.7907 189.334 13.3329 188.114C13.1804 187.658 13.0291 187.2 12.8765 186.742ZM12.4958 87.7714C11.352 87.3137 9.98148 87.924 9.52373 89.0664C9.37114 89.5241 9.14294 90.0575 8.99035 90.5139C8.53395 91.6576 9.14294 93.0282 10.2853 93.4859C10.5149 93.5615 10.8187 93.6385 11.1238 93.6385C12.038 93.6385 12.9522 93.1051 13.2573 92.191C13.4099 91.7332 13.6381 91.2768 13.7907 90.8191C14.2471 89.5241 13.7137 88.2292 12.4958 87.7714ZM19.4282 201.752C18.8193 200.61 17.4473 200.152 16.3806 200.763C15.3139 201.372 14.7805 202.743 15.3908 203.81C15.619 204.267 15.8472 204.724 16.0768 205.181C16.4576 205.942 17.2948 206.4 18.1333 206.4C18.5141 206.4 18.8193 206.324 19.2 206.172C20.3424 205.562 20.7232 204.191 20.1898 203.047C19.886 202.591 19.6578 202.133 19.4282 201.752ZM5.56192 156.495C5.4863 156.038 5.40934 155.504 5.40934 155.048C5.25675 153.829 4.11439 152.914 2.89506 152.99C1.67573 153.143 0.761574 154.286 0.838542 155.504C0.914159 156.038 0.991127 156.495 0.991127 157.029C1.14236 158.171 2.13349 159.01 3.27585 159.01C3.35282 159.01 3.42843 159.01 3.58102 159.01C4.80035 158.857 5.71451 157.715 5.56192 156.495ZM19.7334 72.7614C18.591 72.1524 17.2191 72.6101 16.6101 73.6755C16.3806 74.1333 16.1524 74.591 15.8472 75.0475C15.2382 76.1898 15.6946 77.5617 16.8383 78.0951C17.1435 78.2477 17.5243 78.3233 17.9051 78.3233C18.7423 78.3233 19.5052 77.8669 19.9616 77.1053C20.1898 76.6476 20.4194 76.1898 20.6476 75.809C21.2566 74.7423 20.8758 73.3717 19.7334 72.7614ZM8.53395 172.571C8.38137 172.114 8.3044 171.581 8.15181 171.123C7.84799 169.905 6.62867 169.142 5.40934 169.448C4.19001 169.753 3.42843 170.972 3.7336 172.19C3.88619 172.723 3.96181 173.181 4.11439 173.715C4.34259 174.781 5.33372 175.467 6.3235 175.467C6.47608 175.467 6.70428 175.467 6.85687 175.39C8.0762 175.009 8.83777 173.79 8.53395 172.571ZM48.152 34.2857C47.7712 34.5909 47.3904 34.9716 47.0096 35.2768C46.0955 36.114 46.0185 37.5615 46.8571 38.4757C47.3148 39.0091 47.9238 39.2386 48.5328 39.2386C49.0662 39.2386 49.5995 39.086 50.0573 38.6283C50.4381 38.3245 50.8189 37.9423 51.1997 37.6385C52.1908 36.8 52.2664 35.3524 51.4292 34.4383C50.5907 33.5997 49.1431 33.4471 48.152 34.2857ZM255.162 60.4196C254.476 59.3528 253.029 59.1233 251.962 59.8092C250.895 60.4952 250.667 61.9427 251.352 63.0095C251.657 63.3902 251.885 63.848 252.19 64.2288C252.648 64.9147 253.333 65.2186 254.096 65.2186C254.552 65.2186 255.01 65.0673 255.391 64.8378C256.457 64.1518 256.686 62.7043 256 61.6375C255.771 61.2568 255.466 60.876 255.162 60.4196ZM254.629 216.305C253.562 215.619 252.19 215.848 251.429 216.915C251.124 217.296 250.895 217.752 250.59 218.133C249.829 219.2 250.134 220.572 251.124 221.333C251.504 221.638 251.962 221.714 252.419 221.714C253.105 221.714 253.866 221.41 254.324 220.724C254.629 220.343 254.933 219.886 255.238 219.429C255.924 218.438 255.696 216.991 254.629 216.305ZM241.372 229.715C241.067 230.095 240.686 230.476 240.381 230.857C239.543 231.771 239.619 233.219 240.533 234.057C240.991 234.438 241.524 234.666 242.058 234.666C242.667 234.666 243.276 234.438 243.733 233.905C244.114 233.524 244.419 233.143 244.8 232.762C245.639 231.848 245.562 230.4 244.572 229.562C243.658 228.723 242.209 228.8 241.372 229.715ZM244.723 47.1622C243.886 46.2481 242.438 46.0955 241.524 46.9327C240.61 47.7712 240.458 49.2188 241.295 50.1329C241.6 50.5137 241.981 50.8958 242.286 51.2766C242.742 51.81 243.353 52.0382 244.039 52.0382C244.572 52.0382 245.105 51.8856 245.562 51.5048C246.476 50.6663 246.628 49.2188 245.79 48.3046C245.409 47.9238 245.105 47.543 244.723 47.1622ZM229.79 241.295C229.409 241.6 229.029 241.981 228.648 242.286C227.657 243.124 227.581 244.572 228.42 245.486C228.876 246.019 229.486 246.248 230.171 246.248C230.704 246.248 231.238 246.095 231.695 245.714C232.076 245.409 232.457 245.028 232.838 244.723C233.752 243.886 233.905 242.438 233.067 241.524C232.229 240.533 230.781 240.458 229.79 241.295ZM220.8 25.6761C220.343 25.3709 219.961 25.0671 219.505 24.762C218.438 24.076 217.066 24.3042 216.305 25.3709C215.619 26.4377 215.848 27.8096 216.914 28.5712C217.296 28.8764 217.752 29.1046 218.133 29.4097C218.514 29.7149 218.971 29.8661 219.429 29.8661C220.114 29.8661 220.877 29.5623 221.333 28.8764C222.019 27.8096 221.791 26.3621 220.8 25.6761ZM232.838 35.1998C231.924 34.3613 230.476 34.4383 229.638 35.428C228.8 36.3422 228.876 37.7911 229.867 38.6283C230.248 38.9334 230.629 39.3142 231.009 39.6194C231.467 40.0002 232.001 40.2284 232.534 40.2284C233.143 40.2284 233.752 40.0002 234.21 39.4668C235.048 38.5527 234.971 37.1051 234.057 36.2666C233.599 35.8858 233.219 35.505 232.838 35.1998ZM276.952 154.286C275.733 154.134 274.591 155.048 274.438 156.267C274.362 156.724 274.285 157.257 274.285 157.715C274.133 158.933 274.971 160.076 276.266 160.305C276.343 160.305 276.495 160.305 276.572 160.305C277.714 160.305 278.705 159.466 278.858 158.324C278.933 157.79 279.009 157.334 279.086 156.801C279.086 155.581 278.247 154.438 276.952 154.286ZM274.285 170.667C273.066 170.362 271.848 171.123 271.543 172.343C271.39 172.8 271.315 173.334 271.162 173.79C270.857 175.009 271.619 176.229 272.838 176.61C272.991 176.685 273.219 176.685 273.371 176.685C274.362 176.685 275.352 176.001 275.58 174.934C275.733 174.4 275.81 173.943 275.963 173.409C276.266 172.19 275.505 170.972 274.285 170.667ZM277.714 137.676C276.419 137.676 275.429 138.743 275.429 139.962C275.429 140.419 275.429 140.952 275.429 141.41C275.429 142.705 276.419 143.696 277.714 143.696C278.933 143.696 280 142.705 280 141.41C280 140.952 280 140.419 280 139.885V139.81C280 138.667 278.933 137.676 277.714 137.676ZM123.733 274.438C123.276 274.362 122.743 274.285 122.285 274.285C121.067 274.133 119.924 274.971 119.695 276.266C119.467 277.561 120.381 278.628 121.676 278.858C122.21 278.933 122.666 279.009 123.199 279.086C123.276 279.086 123.352 279.086 123.505 279.086C124.647 279.086 125.638 278.247 125.791 277.105C125.943 275.733 125.029 274.591 123.733 274.438ZM269.638 186.591C268.495 186.133 267.123 186.742 266.667 187.886C266.514 188.342 266.286 188.8 266.134 189.257C265.676 190.4 266.286 191.771 267.429 192.229C267.734 192.304 267.962 192.381 268.267 192.381C269.181 192.381 270.019 191.848 270.401 190.934C270.552 190.476 270.781 189.943 270.933 189.486C271.39 188.419 270.781 187.047 269.638 186.591ZM263.009 201.905C261.867 201.296 260.495 201.752 259.886 202.895C259.658 203.352 259.428 203.81 259.2 204.191C258.591 205.333 259.047 206.705 260.114 207.314C260.495 207.467 260.8 207.619 261.181 207.619C262.019 207.619 262.781 207.162 263.162 206.4C263.39 205.942 263.619 205.486 263.923 205.028C264.609 203.886 264.153 202.514 263.009 201.905ZM263.923 74.8949C263.314 73.7525 261.942 73.3717 260.8 73.9051C259.658 74.4385 259.277 75.886 259.81 77.0284C260.038 77.4861 260.267 77.9425 260.495 78.3233C260.876 79.0862 261.714 79.5426 262.553 79.5426C262.933 79.5426 263.239 79.467 263.619 79.3144C264.762 78.7041 265.22 77.3335 264.609 76.2668C264.457 75.809 264.153 75.3526 263.923 74.8949ZM141.562 0C141.029 0 140.571 0 140.038 0H139.81C138.515 0 137.524 0.991127 137.524 2.28607C137.524 3.58102 138.515 4.57079 139.81 4.57079H140.038C140.571 4.57079 141.029 4.57079 141.562 4.57079C142.782 4.57079 143.847 3.58102 143.847 2.28607C143.771 1.06674 142.78 0 141.562 0ZM156.418 274.438C155.962 274.514 155.429 274.591 154.971 274.591C153.753 274.743 152.839 275.886 152.914 277.105C153.067 278.247 154.057 279.161 155.2 279.161C155.276 279.161 155.353 279.161 155.429 279.161C155.962 279.086 156.418 279.009 156.952 279.009C158.171 278.858 159.085 277.714 158.933 276.495C158.781 275.124 157.638 274.285 156.418 274.438ZM158.401 1.21933C157.867 1.14236 157.41 1.06674 156.876 0.991127C155.657 0.838542 154.514 1.7527 154.362 2.97203C154.209 4.19001 155.123 5.33372 156.343 5.4863C156.801 5.56192 157.334 5.63754 157.79 5.63754C157.867 5.63754 158.019 5.63754 158.095 5.63754C159.238 5.63754 160.229 4.80035 160.382 3.65664C160.533 2.51427 159.619 1.37191 158.401 1.21933ZM172.495 271.466C172.037 271.619 171.505 271.696 171.048 271.848C169.828 272.152 169.067 273.371 169.372 274.591C169.6 275.657 170.59 276.343 171.581 276.343C171.734 276.343 171.962 276.343 172.114 276.266C172.648 276.114 173.104 276.038 173.638 275.886C174.857 275.58 175.618 274.362 175.315 273.143C174.934 271.924 173.715 271.162 172.495 271.466ZM140.115 275.429H140.038C139.581 275.429 139.124 275.429 138.667 275.429C137.448 275.429 136.381 276.419 136.381 277.714C136.381 279.009 137.371 280 138.667 280C139.124 280 139.657 280 140.115 280H140.19C141.485 280 142.476 279.009 142.476 277.714C142.476 276.419 141.333 275.429 140.115 275.429ZM124.419 0.838542C123.885 0.914159 123.429 0.991127 122.896 0.991127C121.676 1.14236 120.762 2.28607 120.915 3.5054C121.067 4.64776 122.057 5.4863 123.199 5.4863C123.276 5.4863 123.352 5.4863 123.505 5.4863C123.962 5.40934 124.496 5.33372 124.952 5.33372C126.171 5.18113 127.086 4.03877 127.01 2.81944C126.78 1.60012 125.714 0.685957 124.419 0.838542ZM175.009 4.41956C174.476 4.26698 174.02 4.19001 173.486 4.03877C172.267 3.7336 171.048 4.49518 170.742 5.71451C170.439 6.93384 171.2 8.15181 172.42 8.45698C172.876 8.60957 173.409 8.68519 173.867 8.83777C174.095 8.91474 174.248 8.91474 174.476 8.91474C175.467 8.91474 176.457 8.22878 176.685 7.16204C176.915 5.94271 176.229 4.72338 175.009 4.41956ZM202.972 259.886C202.514 260.114 202.057 260.342 201.677 260.572C200.533 261.181 200.077 262.553 200.686 263.619C201.066 264.381 201.905 264.839 202.743 264.839C203.124 264.839 203.428 264.762 203.81 264.609C204.267 264.381 204.724 264.153 205.181 263.923C206.324 263.314 206.705 261.942 206.172 260.8C205.486 259.733 204.114 259.277 202.972 259.886ZM206.4 16.7614C205.942 16.5332 205.486 16.305 205.028 15.9998C203.886 15.3908 202.514 15.8472 201.905 16.9909C201.296 18.1333 201.752 19.5052 202.895 20.1142C203.352 20.3424 203.81 20.572 204.191 20.8002C204.572 20.9527 204.876 21.1053 205.258 21.1053C206.095 21.1053 206.856 20.6476 207.239 19.886C207.923 18.7423 207.542 17.2948 206.4 16.7614ZM216.991 251.429C216.61 251.734 216.152 251.962 215.771 252.266C214.704 252.952 214.476 254.4 215.162 255.466C215.619 256.152 216.305 256.457 217.066 256.457C217.524 256.457 217.98 256.305 218.362 256.077C218.819 255.771 219.2 255.466 219.657 255.238C220.724 254.552 220.952 253.105 220.266 252.038C219.429 250.971 217.98 250.667 216.991 251.429ZM188.114 266.59C187.658 266.743 187.2 266.971 186.742 267.123C185.524 267.581 184.914 268.876 185.372 270.095C185.676 271.01 186.591 271.619 187.505 271.619C187.733 271.619 188.039 271.543 188.267 271.466C188.723 271.315 189.257 271.085 189.714 270.933C190.857 270.476 191.467 269.181 191.009 267.962C190.628 266.743 189.257 266.134 188.114 266.59ZM191.086 9.59934C190.628 9.44811 190.095 9.21856 189.639 9.06732C188.495 8.60957 187.124 9.21856 186.667 10.3623C186.209 11.5046 186.819 12.8765 187.962 13.3329C188.419 13.4855 188.876 13.7137 189.334 13.8663C189.639 13.9433 189.867 14.0189 190.172 14.0189C191.086 14.0189 191.923 13.4855 192.304 12.5714C192.838 11.429 192.229 10.0571 191.086 9.59934Z" fill="black"/>
<mask id="mask1_1902_2" style="mask-type:luminance" maskUnits="userSpaceOnUse" x="111" y="111" width="58" height="58">
<path d="M111.348 111.348H168.644V168.644H111.348V111.348Z" fill="white"/>
</mask>
<g mask="url(#mask1_1902_2)">
<path fill-rule="evenodd" clip-rule="evenodd" d="M148.886 132.093C148.341 132.093 147.898 131.65 147.898 131.104V114.335C147.898 112.698 146.572 111.371 144.934 111.371H135.056C133.418 111.371 132.092 112.698 132.092 114.335V131.104C132.092 131.65 131.65 132.093 131.104 132.093H114.335C112.698 132.093 111.371 133.419 111.371 135.057V144.934C111.371 146.572 112.698 147.898 114.335 147.898H131.104C131.65 147.898 132.092 148.341 132.092 148.886V165.656C132.092 167.292 133.418 168.62 135.056 168.62H144.934C146.572 168.62 147.898 167.292 147.898 165.656V148.886C147.898 148.341 148.341 147.898 148.886 147.898H165.656C167.292 147.898 168.62 146.572 168.62 144.934V135.057C168.62 133.419 167.292 132.093 165.656 132.093H148.886Z" fill="#658882"/>
</g>
</g>
<defs>
<clipPath id="clip0_1902_2">
<rect width="280" height="280" fill="white"/>
</clipPath>
</defs>
</svg>
